<?xml version="1.0" standalone="no"?>
<!DOCTYPE svg PUBLIC "-//W3C//DTD SVG 20010904//EN"
 "http://www.w3.org/TR/2001/REC-SVG-20010904/DTD/svg10.dtd">
<svg version="1.0" xmlns="http://www.w3.org/2000/svg"
 width="100.000000pt" height="100.000000pt" viewBox="0 0 100.000000 100.000000"
 preserveAspectRatio="xMidYMid meet">
<metadata>
Created by potrace 1.16, written by Peter Selinger 2001-2019
</metadata>
<g transform="translate(0.000000,100.000000) scale(0.050000,-0.050000)"
fill="#000000" stroke="none">
<path d="M1025 1789 c-330 -29 -624 -293 -696 -624 -20 -93 -16 -275 9 -367
76 -280 294 -496 576 -568 156 -40 377 -21 517 44 97 45 262 166 247 182 -3 2
-39 18 -79 33 l-74 29 -40 -28 c-119 -82 -222 -113 -370 -114 -97 0 -120 4
-195 30 -456 160 -577 729 -226 1057 57 53 145 103 235 134 89 31 239 37 331
14 67 -16 183 -69 229 -104 28 -22 37 -24 60 -15 14 5 50 19 79 30 28 11 52
22 51 26 -2 23 -137 120 -224 162 -144 70 -270 93 -430 79z"/>
<path d="M1014 1535 c-76 -14 -184 -64 -244 -115 l-35 -29 51 -52 52 -52 34
26 c63 48 147 80 225 85 167 11 309 -72 384 -223 32 -66 34 -75 34 -175 0 -99
-2 -109 -33 -173 -114 -232 -401 -298 -608 -141 l-35 27 -51 -50 c-28 -28 -48
-55 -44 -61 13 -21 128 -91 181 -111 314 -118 653 63 730 390 69 295 -133 601
-433 655 -93 16 -116 16 -208 -1z"/>
</g>
</svg>
